# xmcd
#
# Track frame offsets: 
#        150
#        18117
#        39142
#        59037
#        81406
#        102256
#        118800
#        134362
#        153393
#        164965
#        189480
#        203285
#        221269
#
# Disc length: 3235 seconds
#
# Revision: 0
# Processed by: cddbd v1.5.2PL0 Copyright (c) Steve Scherf et al.
# Submitted via: ExactAudioCopy v1.3
#
DISCID=af0ca10d
DTITLE=The Sandbox Josephs - DIG
DYEAR=2018
DGENRE=Blues
TTITLE0=Rocket
TTITLE1=Many Ways to Die in the Bayou
TTITLE2=Blow Wind Blow
TTITLE3=Heaven
TTITLE4=King's Highway
TTITLE5=Porn Rodeo Sweetheart
TTITLE6=The Sludge
TTITLE7=Promise to Trust
TTITLE8=Into Silence
TTITLE9=When the Flood Is Over
TTITLE10=I Ride Alone
TTITLE11=Southern Cross
TTITLE12=Evening Waltz
EXTD=
EXTT0=
EXTT1=
EXTT2=
EXTT3=
EXTT4=
EXTT5=
EXTT6=
EXTT7=
EXTT8=
EXTT9=
EXTT10=
EXTT11=
EXTT12=
PLAYORDER=
